<?xml version="1.0" standalone="no"?>
<!DOCTYPE svg PUBLIC "-//W3C//DTD SVG 20010904//EN"
 "http://www.w3.org/TR/2001/REC-SVG-20010904/DTD/svg10.dtd">
<svg version="1.0" xmlns="http://www.w3.org/2000/svg"
 width="512.000000pt" height="512.000000pt" viewBox="0 0 512.000000 512.000000"
 preserveAspectRatio="xMidYMid meet">
<metadata>
Created by potrace 1.11, written by Peter Selinger 2001-2013
</metadata>
<g transform="translate(0.000000,512.000000) scale(0.100000,-0.100000)"
fill="#000000" stroke="none">
<path d="M0 2560 l0 -2560 2560 0 2560 0 0 2560 0 2560 -2560 0 -2560 0 0
-2560z m2686 2459 c126 -17 241 -55 389 -129 363 -180 676 -509 895 -940 144
-285 227 -549 277 -885 24 -164 24 -572 0 -728 -44 -286 -116 -518 -237 -762
-131 -267 -258 -440 -492 -679 l-147 -149 126 -217 126 -218 135 -7 c128 -7
135 -8 166 -35 26 -24 31 -36 31 -74 0 -36 -6 -51 -29 -75 l-30 -31 -792 0
-792 0 -26 31 c-34 40 -41 72 -26 110 24 58 46 66 200 74 77 4 140 9 140 11 0
13 -156 267 -167 271 -7 3 -37 -11 -66 -31 -29 -20 -103 -72 -165 -115 -249
-175 -570 -301 -872 -342 -104 -14 -518 -19 -563 -6 -31 8 -67 60 -67 95 0 26
59 148 137 280 30 51 53 95 51 97 -1 1 -91 19 -198 38 -328 60 -419 99 -406
176 12 76 0 54 824 1481 278 481 515 891 526 911 l20 36 -61 99 c-110 177
-160 337 -170 539 -9 198 25 378 106 551 55 117 112 197 210 294 253 252 611
376 947 329z"/>
<path d="M2439 4800 c-377 -47 -672 -301 -770 -665 -33 -119 -33 -339 -1 -449
51 -177 143 -328 277 -454 132 -124 239 -177 456 -223 57 -12 116 -28 131 -35
73 -37 77 -127 8 -181 -21 -17 -120 -16 -205 2 -159 34 -310 97 -439 185 -43
28 -82 48 -86 43 -15 -15 -1233 -2124 -1245 -2155 -7 -17 21 -26 160 -48 585
-93 1175 98 1614 524 185 181 304 340 396 530 76 158 110 185 190 146 76 -37
75 -101 -4 -266 -124 -258 -331 -508 -597 -721 -300 -238 -644 -386 -1031
-443 -75 -11 -140 -23 -144 -27 -13 -13 -126 -219 -134 -242 -6 -20 -2 -21 52
-21 90 0 309 28 403 51 297 74 601 237 835 449 77 71 112 90 161 90 53 0 79
-33 218 -271 179 -306 179 -305 223 -314 39 -7 453 4 453 12 0 3 -48 89 -107
191 -113 195 -143 266 -135 308 3 17 52 68 144 151 259 234 417 443 562 743
105 219 183 473 206 675 13 115 13 511 0 634 -26 240 -120 552 -241 795 -119
238 -247 416 -428 596 -288 287 -621 428 -922 390z m409 -357 c65 -48 84 -131
48 -201 -43 -83 -200 -86 -253 -5 -24 36 -24 130 0 166 41 63 146 84 205 40z
m-712 -402 c43 -26 78 -101 70 -149 -21 -132 -187 -170 -268 -61 -48 64 -20
175 52 211 46 23 107 23 146 -1z m480 -38 c50 -13 97 -28 104 -33 12 -7 9 -28
-15 -122 -15 -62 -32 -121 -37 -130 -12 -25 -47 -23 -168 12 -58 17 -106 30
-107 30 -12 0 29 182 56 253 13 33 11 33 167 -10z"/>
</g>
</svg>
