<svg width="20" height="19" viewBox="0 0 20 19" fill="none" xmlns="http://www.w3.org/2000/svg">
<path fill-rule="evenodd" clip-rule="evenodd" d="M2.22222 19H17.7778C19.0051 19 20 18.0548 20 16.8889V2.11111C20 0.945177 19.0051 0 17.7778 0H2.22222C0.994923 0 0 0.945177 0 2.11111V16.8889C0 18.0548 0.994923 19 2.22222 19Z" fill="#6D8EC7"/>
<path fill-rule="evenodd" clip-rule="evenodd" d="M9.99975 3.16675C6.3185 3.16675 3.3335 6.01334 3.3335 9.52558C3.3335 12.3344 5.2435 14.7176 7.89308 15.5586C8.22641 15.617 8.34808 15.4207 8.34808 15.2522C8.34808 15.1011 8.34225 14.7014 8.33891 14.1708C6.48433 14.5551 6.09308 13.3184 6.09308 13.3184C5.79016 12.584 5.35308 12.3885 5.35308 12.3885C4.74766 11.9939 5.39891 12.0018 5.39891 12.0018C6.06766 12.0467 6.41975 12.6571 6.41975 12.6571C7.01475 13.6288 7.98016 13.3482 8.36016 13.1853C8.42058 12.7743 8.59308 12.4942 8.7835 12.3352C7.30308 12.1747 5.74683 11.6294 5.74683 9.19296C5.74683 8.4987 6.00641 7.93121 6.43308 7.48651C6.36433 7.32556 6.13558 6.67939 6.49808 5.80391C6.49808 5.80391 7.05808 5.63303 8.33141 6.45565C8.8635 6.31457 9.4335 6.24423 10.0006 6.24145C10.5668 6.24423 11.1372 6.31457 11.6697 6.45565C12.9422 5.63303 13.501 5.80391 13.501 5.80391C13.8647 6.67939 13.636 7.32556 13.5672 7.48651C13.9947 7.93121 14.2527 8.4987 14.2527 9.19296C14.2527 11.6354 12.6939 12.1731 11.2089 12.3305C11.4481 12.5268 11.6614 12.9146 11.6614 13.508C11.6614 14.358 11.6531 15.0435 11.6531 15.2522C11.6531 15.4222 11.7731 15.6201 12.1114 15.5578C14.7585 14.7153 16.6668 12.3336 16.6668 9.52558C16.6668 6.01334 13.6818 3.16675 9.99975 3.16675Z" fill="#1D2034"/>
</svg>
