<svg width="122" height="154" viewBox="0 0 122 154" fill="none" xmlns="http://www.w3.org/2000/svg">
<g opacity="0.85">
<path d="M99.3877 148.931C96.8269 148.4 94.4352 147.121 88.6613 143.138C82.4043 138.817 79.3845 137.297 76.4372 136.959C75.4708 136.838 74.577 137.031 71.6296 137.924C61.4831 140.966 54.2114 142.197 45.9976 142.197C40.876 142.197 38.0978 141.907 34.3532 140.966C29.1833 139.662 25.0522 137.441 21.7184 134.207C15.0748 127.714 14.036 121.124 18.2637 112.362C18.8435 111.179 20.5587 107.993 22.0807 105.29C25.1005 99.931 26.2118 97.5414 27.2023 94.2586C27.758 92.4 27.8546 91.6517 27.8546 89.069C27.8546 86.4621 27.7821 85.7621 27.2023 83.8793C26.3085 80.9345 24.5449 77.3379 21.0902 71.4483C19.4958 68.7207 17.5873 65.3655 16.8384 63.9655C10.0257 51.1724 9.71162 39.9 15.8237 27.7586C19.6649 20.131 25.1972 14.5793 32.6863 10.8862C36.1651 9.17243 39.1124 8.15863 43.0986 7.36208C46.3116 6.71036 52.9793 6.15519 54.3322 6.39656C54.7912 6.49312 57.3279 6.54139 59.937 6.54139C65.131 6.51725 67.4019 6.78277 70.8324 7.86898C79.6261 10.6207 88.5164 18.3448 92.7682 26.9138C95.329 32.0793 96.1021 35.2897 96.3195 41.3483C96.4886 46.0793 96.1746 49.2173 95.1599 53.4173C93.8071 58.969 92.3334 61.4069 89.3378 63.0242C87.8883 63.8207 87.7191 63.8448 85.2791 63.8448C82.9841 63.8448 82.5976 63.7724 81.3655 63.169C79.5778 62.3 78.0075 60.731 77.1378 58.9448C76.5821 57.8104 76.4372 57.1828 76.3888 55.3483L76.2922 53.1035H73.4415H70.5908L70.4942 55.2035C70.3251 58.7759 68.7065 61.3828 65.6625 63C62.8843 64.4966 59.2364 64.2793 56.5306 62.469C54.912 61.4069 53.4142 59.3793 52.9069 57.5931L52.5928 56.4828L45.3211 56.531L38.0494 56.6035L37.977 58.8966C37.832 62.9517 38.9191 67.0069 40.9726 70.1207C41.9873 71.6897 42.0114 71.7862 41.6249 72.2207C41.4075 72.4621 40.4411 73.0414 39.5231 73.5C37.4696 74.4897 34.7881 74.9241 32.0582 74.6828C30.9469 74.5862 30.198 74.6104 30.198 74.7552C30.198 74.8759 30.3671 75.5276 30.5603 76.1793C31.43 79.1242 34.474 80.2586 39.0158 79.2931C41.6974 78.7138 42.3496 78.7862 43.1952 79.7759C43.6059 80.2345 44.5481 81.7793 45.297 83.2276C47.133 86.8483 48.2685 88.3448 50.032 89.5276C52.6894 91.3138 57.8593 92.569 66.4356 93.5345C72.2578 94.1862 74.1904 94.8138 77.017 96.8897C80.1092 99.1828 82.6217 103.745 83.2257 108.114L83.3948 109.393L81.1481 107.51C75.4225 102.755 69.3346 99.8104 62.1354 98.3379C58.415 97.5897 55.8784 96.6242 53.1968 94.9345C50.3461 93.1242 47.8336 90.9517 45.0795 87.8621C42.2772 84.7242 41.9631 84.5069 41.4558 85.2552C40.9243 86.0035 40.9726 87.0655 41.6732 89.2379C42.3496 91.3621 42.4221 92.2793 41.9631 92.6414C41.794 92.7862 41.0209 92.9793 40.272 93.0759C38.5085 93.2931 38.0011 93.6311 38.3877 94.331C38.6534 94.8379 38.8467 94.8621 42.1081 94.8862C48.7999 94.9345 51.6989 95.1759 53.0035 95.8035C54.6946 96.6242 56.5306 98.5793 59.1881 102.345C63.3675 108.259 66.049 110.6 70.4459 112.145C81.6312 116.031 98.4696 128.534 104.413 137.297C107.167 141.376 107.65 144.586 105.814 146.783C104.437 148.472 101.683 149.39 99.3877 148.931ZM64.8894 61.5517C69.3587 59.3552 70.3251 53.369 66.7496 49.8207C65.5659 48.6138 63.5849 47.769 61.9663 47.7207L60.6617 47.6724L60.5168 46.4655C60.4201 45.8138 60.396 44.5345 60.4443 43.6173L60.5168 41.9759L61.9421 43.8104C63.295 45.5242 63.4158 45.6207 64.3096 45.6207H65.276L65.131 43.0379C65.0585 41.5897 64.9136 38.4035 64.8411 35.9173L64.6962 31.3793H63.8748C63.4399 31.3793 63.0292 31.4517 62.9809 31.5724C62.9326 31.669 62.9809 34.0828 63.1017 36.931C63.1983 39.7793 63.2708 42.2173 63.2225 42.3138C63.1983 42.4345 62.5219 41.7104 61.7247 40.6966C60.3718 38.9828 60.2269 38.8621 59.3572 38.8621H58.415L58.5841 43.5207L58.7532 48.1552L57.8835 48.6138C56.7239 49.2414 55.3952 50.7138 54.7912 52.0655C52.5686 57.0862 56.6273 62.8552 62.0629 62.3966C62.8601 62.3483 63.9714 62.0104 64.8894 61.5517ZM88.5647 61.069C93.0098 58.8966 93.9762 52.8862 90.4732 49.3621C86.9219 45.8379 80.8098 46.8276 78.6356 51.269C76.9928 54.6241 78.0075 58.5104 81.0997 60.6828C83.274 62.2035 85.9797 62.3483 88.5647 61.069ZM52.6653 53.8276C52.6653 52.7897 53.4867 50.7621 54.3564 49.6759C54.8395 49.0724 54.9845 48.7586 54.7671 48.7586C54.5738 48.7586 53.2692 49.3379 51.8439 50.0621L49.2831 51.3655V50.7379C49.2831 49.2897 51.1191 46.5138 52.8102 45.3552C53.3176 45.0173 53.3417 44.8 53.5108 37.7035C53.6316 32.6586 53.6075 30.4138 53.4384 30.4138C52.9069 30.4138 50.4186 33.769 49.4039 35.8448C47.5195 39.731 46.7223 43.9552 46.9156 49.169L47.0364 52.3793L45.756 53.0069C43.9683 53.8759 41.6249 53.7793 40.1271 52.7897C39.4265 52.331 39.0883 52.2104 39.0399 52.4276C38.9916 52.5966 38.8225 53.1035 38.6776 53.5621C38.5326 54.0207 38.4118 54.431 38.4118 54.4552C38.4118 54.5035 41.6249 54.5517 45.5386 54.5517H52.6653V53.8276ZM77.3793 50.6414C77.8142 49.869 77.8142 49.869 77.2585 49.4345C76.9445 49.1931 76.6304 49 76.5338 49C76.413 49 76.3405 48.2517 76.3405 47.3104C76.3405 46.3931 76.2922 45.6207 76.2197 45.6207C76.1473 45.6207 75.4708 46.0793 74.7461 46.6345C73.6106 47.4793 73.369 47.5759 73.1033 47.2862C72.9342 47.0931 71.8954 45.8379 70.8083 44.4621L68.8514 41.9759V42.869C68.8514 43.5448 69.0447 43.9793 69.697 44.6793C70.5183 45.5966 70.7116 46.3207 70.3976 47.1897C70.2043 47.6483 69.0688 48.2759 68.3683 48.2759C67.7884 48.2759 67.7401 48.5897 68.2716 49C68.4649 49.1931 68.9239 49.7966 69.2621 50.3759L69.8661 51.4138H73.3932H76.9445L77.3793 50.6414Z" fill="white"/>
<path d="M102.214 104.107C101.997 103.286 101.828 103.069 101.393 103.069C100.354 103.069 100.161 102.659 101.079 102.49C101.804 102.345 101.997 102.2 102.118 101.596C102.311 100.583 102.601 100.534 102.77 101.452C102.891 102.127 103.06 102.296 103.833 102.514L104.727 102.755L103.929 102.948C103.06 103.165 102.915 103.31 102.673 104.372L102.504 105.121L102.214 104.107Z" fill="white"/>
<path d="M96.827 103.19C96.7303 102.924 96.5612 102.152 96.3921 101.452L96.1022 100.221L94.5561 99.931C93.7105 99.7621 93.0583 99.5448 93.1307 99.4483C93.1791 99.3517 93.8797 99.1345 94.6769 98.9655L96.1264 98.6759L96.3921 97.4207C96.9236 95.1517 96.9478 95.1276 97.3585 96.9138L97.7692 98.6034L99.0737 98.9172C101.175 99.4241 101.2 99.4966 99.4361 99.9069L97.7692 100.293L97.3585 101.983C97.0927 103.141 96.9236 103.528 96.827 103.19Z" fill="white"/>
<path d="M104.388 99.7379C104.364 99.4 104.123 99.0862 103.736 98.9172C103.132 98.6276 103.132 98.6276 103.615 98.4345C103.905 98.3379 104.244 98 104.364 97.7103L104.582 97.1552L104.751 97.6862C104.823 97.9758 105.186 98.3138 105.524 98.4345L106.176 98.6517L105.548 98.7965C105.186 98.8931 104.847 99.231 104.678 99.6172C104.437 100.245 104.413 100.245 104.388 99.7379Z" fill="white"/>
<path d="M18.1429 89.1413C17.9255 88.3207 17.7564 88.1034 17.3216 88.1034C16.2827 88.1034 16.0895 87.6931 17.0075 87.5241C17.7323 87.3793 17.9255 87.2344 18.0463 86.631C18.2396 85.6172 18.5295 85.5689 18.6986 86.4862C18.8194 87.162 18.9885 87.331 19.7616 87.5482L20.6554 87.7896L19.8582 87.9827C18.9885 88.2 18.8435 88.3448 18.602 89.4069L18.4328 90.1551L18.1429 89.1413Z" fill="white"/>
<path d="M83.3467 88.2C83.3467 84.4345 82.5494 83.1311 79.6504 82.2862C77.4278 81.6104 77.0413 81.2966 77.6936 80.5966C77.9352 80.3069 78.7324 79.7518 79.433 79.3656C81.4623 78.2069 81.1724 77.9656 77.6211 77.9414C75.9059 77.9173 74.4322 77.9414 74.2872 77.9656C73.3934 78.1828 70.5669 78.2069 70.0595 77.9897L69.4556 77.7483L70.0595 77.5794C70.3977 77.4828 71.3158 77.0483 72.1372 76.6138C73.2484 76.0345 74.0457 75.7931 75.5193 75.6725C76.5581 75.5759 77.6211 75.4069 77.8385 75.2862C78.515 74.9242 78.829 73.2345 78.6599 70.8449L78.4908 68.6725L79.8678 66.9104C80.9067 65.5587 81.3415 65.1725 81.7522 65.2207C82.2112 65.2931 82.2837 65.4863 82.3803 67.1276C82.5494 69.2759 83.2017 70.5069 84.7962 71.6656C86.7047 73.0414 88.0817 72.8483 90.3284 70.869C91.7055 69.638 92.4544 69.469 92.6476 70.3138C92.8892 71.2794 91.8746 79.2207 91.3189 80.6449C90.1593 83.5897 87.4777 87.3069 85.2552 89.069C83.4916 90.469 83.3467 90.3966 83.3467 88.2Z" fill="white"/>
<path d="M12.7557 88.2242C12.6591 87.9587 12.49 87.1863 12.3208 86.4863L12.0309 85.2552L10.4848 84.9656C9.63926 84.7966 8.98698 84.5794 9.05946 84.4828C9.10778 84.3863 9.80837 84.169 10.6056 84.0001L12.0551 83.7104L12.3208 82.4552C12.8523 80.1863 12.8765 80.1621 13.2872 81.9483L13.6979 83.638L15.0024 83.9518C17.1042 84.4587 17.1284 84.5311 15.3648 84.9414L13.6979 85.3276L13.2872 87.0173C13.0214 88.1759 12.8523 88.5621 12.7557 88.2242Z" fill="white"/>
<path d="M20.3172 84.7725C20.293 84.4345 20.0514 84.1207 19.6649 83.9518C19.0609 83.6621 19.0609 83.6621 19.5441 83.469C19.834 83.3725 20.1722 83.0345 20.293 82.7449L20.5104 82.1897L20.6795 82.7207C20.752 83.0104 21.1144 83.3483 21.4526 83.469L22.1049 83.6862L21.4768 83.8311C21.1144 83.9276 20.7762 84.2656 20.6071 84.6518C20.3655 85.2794 20.3413 85.2794 20.3172 84.7725Z" fill="white"/>
<path d="M71.5573 69.469C70.8567 68.769 71.7023 66.8138 72.8136 66.5241C74.094 66.2103 76.0267 67.6103 75.8092 68.7207C75.7368 69.0828 75.5193 69.131 74.6255 69.0828C73.8524 69.0345 73.4417 69.1069 73.2243 69.3724C72.8377 69.831 71.968 69.8793 71.5573 69.469Z" fill="white"/>
<path d="M104.63 22.038C104.413 21.2173 104.244 21 103.809 21C102.77 21 102.577 20.5897 103.495 20.4207C104.22 20.2759 104.413 20.1311 104.534 19.5276C104.727 18.5138 105.017 18.4655 105.186 19.3828C105.307 20.0586 105.476 20.2276 106.249 20.4449L107.143 20.6862L106.345 20.8793C105.476 21.0966 105.331 21.2414 105.089 22.3035L104.92 23.0518L104.63 22.038Z" fill="white"/>
<path d="M99.2427 21.1207C99.1461 20.8552 98.977 20.0828 98.8079 19.3828L98.518 18.1517L96.9719 17.8621C96.1263 17.6931 95.474 17.4759 95.5465 17.3793C95.5948 17.2828 96.2954 17.0655 97.0927 16.8965L98.5422 16.6069L98.8079 15.3517C99.3394 13.0828 99.3635 13.0586 99.7742 14.8448L100.185 16.5345L101.489 16.8483C103.591 17.3552 103.615 17.4276 101.852 17.8379L100.185 18.2241L99.7742 19.9138C99.5085 21.0724 99.3394 21.4586 99.2427 21.1207Z" fill="white"/>
<path d="M106.804 17.6689C106.78 17.331 106.539 17.0172 106.152 16.8483C105.548 16.5586 105.548 16.5586 106.031 16.3655C106.321 16.2689 106.66 15.931 106.78 15.6414L106.998 15.0862L107.167 15.6172C107.239 15.9069 107.602 16.2448 107.94 16.3655L108.592 16.5827L107.964 16.7276C107.602 16.8241 107.263 17.162 107.094 17.5482C106.853 18.1758 106.829 18.1758 106.804 17.6689Z" fill="white"/>
</g>
</svg>
