<svg width="20" height="19" viewBox="0 0 20 19" fill="none" xmlns="http://www.w3.org/2000/svg">
<path d="M20 17.8125C20 18.468 19.44 19 18.75 19H1.25C0.56 19 0 18.468 0 17.8125V1.1875C0 0.532 0.56 0 1.25 0H18.75C19.44 0 20 0.532 20 1.1875V17.8125Z" fill="#6D8EC7"/>
<path d="M6.875 6.53125H4.375V14.8438H6.875V6.53125Z" fill="#1D2034"/>
<path d="M12.8119 6.53125C11.0675 6.53125 10.7675 7.13569 10.625 7.71875V6.53125H8.125V14.8438H10.625V10.0938C10.625 9.32366 11.0644 8.90625 11.875 8.90625C12.6663 8.90625 13.125 9.31475 13.125 10.0938V14.8438H15.625V10.6875C15.625 8.3125 15.2994 6.53125 12.8119 6.53125Z" fill="#1D2034"/>
<path d="M5.625 5.9375C6.31536 5.9375 6.875 5.40584 6.875 4.75C6.875 4.09416 6.31536 3.5625 5.625 3.5625C4.93464 3.5625 4.375 4.09416 4.375 4.75C4.375 5.40584 4.93464 5.9375 5.625 5.9375Z" fill="#1D2034"/>
</svg>
