<svg width="16" height="16" viewBox="0 0 16 16" fill="none" xmlns="http://www.w3.org/2000/svg">
<g clip-path="url(#clip0)">
<path fill-rule="evenodd" clip-rule="evenodd" d="M13.3349 16.0007H2.67624C1.94024 16.0007 1.34424 15.4033 1.34424 14.6667V7.996C1.34424 7.25933 1.9409 6.66133 2.67624 6.66133H3.34224V4.66067C3.34224 2.082 5.43024 -0.00866699 8.00557 -0.00866699C10.5809 -0.00866699 12.6689 2.082 12.6689 4.66067V6.66133H13.3349C14.0709 6.66133 14.6669 7.25867 14.6669 7.996V14.6667C14.6669 15.4027 14.0702 16.0007 13.3349 16.0007ZM10.6702 4.66067C10.6702 3.18733 9.47691 1.99267 8.00557 1.99267C6.53424 1.99267 5.3409 3.18733 5.3409 4.66067V6.66133H10.6702V4.66067H10.6702Z" fill="#6D8EC7"/>
</g>
<defs>
<clipPath id="clip0">
<rect width="16" height="16" fill="white"/>
</clipPath>
</defs>
</svg>
