<svg width="37" height="46" viewBox="0 0 37 46" fill="none" xmlns="http://www.w3.org/2000/svg">
<path d="M6.40036 45.7634C4.86843 45.724 4.80351 45.724 4.54387 45.3823C4.40106 45.1983 4.28422 44.9223 4.28422 44.7646C4.28422 44.6069 4.68667 43.7657 5.18001 42.8983L6.0758 41.3343L5.46562 41.2291C2.3758 40.7034 1.19439 40.4011 0.765971 40.0069C0.272638 39.5469 0.428427 39.1394 2.62246 35.3017C4.40106 32.1606 7.68562 26.4171 11.9439 18.952L12.9435 17.204L12.3853 16.3366C10.4768 13.4057 10.2821 9.43657 11.879 6.15086C13.7484 2.27371 18.4351 -0.0920009 22.6414 0.709713C28.8081 1.89257 34.4035 8.59543 36.0263 16.744C37.0909 22.0931 36.5067 27.324 34.3386 31.8714C33.1182 34.4343 31.6772 36.4451 29.5611 38.5217L28.4056 39.6651L29.5611 41.676L30.7165 43.7L31.9758 43.7394C33.1442 43.7789 33.2351 43.792 33.4947 44.1206C33.8453 44.5674 33.8193 45.0274 33.4298 45.4086L33.1182 45.7371H26.0298H18.9414L18.6298 45.4086C18.2404 45.0274 18.2144 44.5674 18.5649 44.1206C18.8246 43.792 18.9025 43.7789 20.1747 43.7394L21.5249 43.7L20.8109 42.4514C20.4214 41.768 20.0579 41.1503 19.993 41.0977C19.9411 41.032 19.5126 41.2686 19.0712 41.6234C17.7081 42.7011 16.6435 43.3714 15.3972 43.9629C12.4891 45.3429 9.98351 45.8554 6.40036 45.7634ZM10.7625 43.4371C13.6965 42.8063 16.6435 41.2423 18.9544 39.0737C19.5516 38.5086 19.7853 38.3771 20.1488 38.3771C20.3954 38.3771 20.6811 38.456 20.7979 38.548C20.9018 38.6269 21.6288 39.8229 22.4077 41.1897C23.1737 42.5434 23.8747 43.6869 23.9526 43.7131C24.0305 43.7526 25.0691 43.7526 26.2505 43.7394L28.4056 43.7L27.2502 41.6891C25.939 39.3891 25.8611 39.0869 26.5232 38.5086C28.2109 37.0234 28.6263 36.616 29.4183 35.7091C31.7681 32.9886 33.4039 29.6766 34.1698 26.0754C34.4295 24.8269 34.4684 24.288 34.4684 21.8171C34.4684 19.3989 34.4165 18.7811 34.1698 17.5063C33.326 13.248 31.4565 9.48914 28.7951 6.63714C27.4839 5.23086 26.3414 4.35029 24.8614 3.61429C23.3944 2.87829 22.2909 2.58914 20.9667 2.58914C17.4484 2.61543 14.4625 4.70514 13.294 7.95143C12.8007 9.33143 12.6579 10.8954 12.9046 12.2229C13.3719 14.7463 15.1116 17.1514 17.2667 18.2686C17.8509 18.5709 19.3568 19.0177 20.1747 19.1229C21.3172 19.2806 21.7716 20.148 21.0835 20.8577C20.7719 21.1731 20.694 21.1863 19.9411 21.1074C18.2404 20.9366 16.3709 20.2137 15.0207 19.228C14.6832 18.9651 14.3716 18.7811 14.3456 18.8074C14.3067 18.86 5.81615 33.7114 3.80387 37.26L2.98597 38.7057L3.58316 38.8634C3.90772 38.9423 4.79053 39.0869 5.5565 39.1657C10.4119 39.7309 15.54 37.8383 19.266 34.1189C20.9667 32.4234 22.3168 30.4783 22.914 28.8749C23.2775 27.9023 24.0305 27.6263 24.7056 28.2309C25.0951 28.5857 24.9782 29.2691 24.2772 30.6886C22.7193 33.8691 19.6554 37.0103 16.293 38.9029C14.2028 40.0594 11.866 40.848 9.58106 41.1371L8.37369 41.2949L7.6986 42.4909C7.33509 43.1611 7.04948 43.7263 7.07544 43.7657C7.15334 43.884 9.74983 43.6606 10.7625 43.4371Z" fill="white"/>
<path d="M20.7069 12.4726C20.2135 12.328 19.7332 12.1834 19.6423 12.1571C19.5384 12.1177 19.5774 11.7629 19.7981 10.9086C19.9669 10.2514 20.1356 9.67315 20.1746 9.63372C20.2395 9.568 21.2132 9.79143 22.2777 10.1331L22.6932 10.2646L22.4984 11.0137C22.3946 11.4211 22.2518 11.9863 22.1869 12.2623C22.0441 12.8274 21.9921 12.8406 20.7069 12.4726Z" fill="white"/>
<path d="M15.7347 11.7629C15.2413 11.3554 15.1245 10.764 15.3971 10.1726C15.6568 9.62057 15.9813 9.42343 16.6694 9.42343C17.0848 9.42343 17.2536 9.50229 17.5522 9.844C18.6817 11.1189 17.0329 12.8669 15.7347 11.7629Z" fill="white"/>
<path d="M22.3038 8.2143C21.8494 7.95144 21.6807 7.63601 21.6807 7.03144C21.6807 6.41373 21.8494 6.0983 22.3298 5.84858C22.8361 5.58573 23.2256 5.59887 23.7189 5.9143C24.42 6.33487 24.5108 7.43887 23.9137 8.05658C23.5761 8.38515 22.7452 8.46401 22.3038 8.2143Z" fill="white"/>
<path d="M14 17L2 39L7.5 40.5L6 44C10 46 17 42.1667 20 40L22.5 44.5L29 44L27.5 39C33.1 35 35.1667 27.3333 35.5 24C35.6667 29 35.9 35.5 35.5 21.5C35.1 7.5 26.3333 2.33333 22 1.5C9.2 3.1 11.3333 12.5 14 17Z" fill="url(#paint0_linear)" fill-opacity="0.8"/>
<defs>
<linearGradient id="paint0_linear" x1="12" y1="3" x2="31.5" y2="45" gradientUnits="userSpaceOnUse">
<stop stop-color="white" stop-opacity="0.23"/>
<stop offset="1" stop-color="white" stop-opacity="0.06"/>
</linearGradient>
</defs>
</svg>
